<svg width="140" height="72" viewBox="0 0 140 72" fill="none" xmlns="http://www.w3.org/2000/svg">
<path fill-rule="evenodd" clip-rule="evenodd" d="M77.2464 25.3138V26.3895H80.4713C81.4642 26.3895 81.7947 26.6379 81.7947 27.6301V28.3746C81.7947 29.2839 81.4642 29.5323 80.4713 29.5323H77.2464C76.2536 29.5323 76.0044 29.2839 76.0044 28.3746V28.209L76.9973 27.9613V28.6222H80.7197V27.3817H77.4941C76.5012 27.3817 76.1708 27.1333 76.1708 26.1411V25.645C76.1708 24.6522 76.5012 24.4045 77.4941 24.4045H80.3892C81.2993 24.4045 81.7126 24.6522 81.7126 25.4802V25.645L80.6369 25.8934V25.3138H77.2464ZM87.0874 24.4045H88.2459V29.5316H87.0874V24.4045ZM94.4487 24.4045H95.6064V28.6215H99.493V29.5316H94.4487V24.4045ZM103.05 24.4045H104.456L106.523 28.1254L108.509 24.4045H109.749L106.936 29.5316H106.026L103.05 24.4045ZM114.793 24.4045H120.088V25.231H115.952V26.3888H118.35V27.2989H115.952V28.6215H120.088V29.5316H114.793V24.4045ZM129.764 25.231C130.094 25.231 130.259 25.3131 130.259 25.6443V26.306C130.259 26.6365 130.094 26.7193 129.764 26.7193H127.034V25.231H129.764ZM125.876 29.5316H127.034V27.6294H128.191L130.259 29.5316H131.997L129.598 27.6294H130.259C131.085 27.6294 131.417 27.2989 131.417 26.6372V25.3966C131.417 24.6522 131.085 24.4045 130.259 24.4045H125.875V29.5316H125.876ZM116.945 44.9144L111.073 34.7422H111.569V33.9978H106.936V34.7422H107.599L101.892 44.9144H100.734V45.6596H105.2V44.9144H104.539L105.532 43.0964H112.892L113.885 44.9144H113.305V45.6596H117.854V44.9144H116.945ZM106.689 40.9443L109.253 36.2305L111.733 40.9443H106.689ZM127.695 41.1934H129.268C131.005 41.1934 131.832 40.6138 131.832 38.96V36.2305C131.832 34.6594 131.005 33.9978 129.268 33.9978H118.35V34.7422H119.26V44.9144H118.35V45.6596H122.899V44.9144H121.906V41.1934H124.553L129.185 45.6596H133.072L127.695 41.1934ZM121.906 39.2091V35.9828H128.027C128.854 35.9828 129.268 36.1477 129.268 36.8929V38.299C129.268 39.1256 128.855 39.2091 128.027 39.2091H121.906ZM103.546 33.9978H90.1474V36.8101H90.8926V36.0656H95.4401V44.9144H94.5308V45.6596H99.0797V44.9144H98.1696V36.0656H102.802V36.8101H103.546V33.9978ZM81.8768 54.9224H81.133V50.4562C80.8839 51.1186 79.644 53.5162 78.8996 54.9224H78.6504C77.9067 53.5162 76.7489 51.2 76.5833 50.4562V54.9224H75.9224V49.4634H76.7489C77.4927 50.8695 78.1551 52.3585 78.8988 53.9295C79.6426 52.3585 80.3878 50.8695 81.2151 49.4634H81.876V54.9224H81.8768ZM84.5235 51.4491C85.4336 51.4491 85.682 52.1929 85.682 52.9366C85.682 53.6818 85.4328 54.5091 84.5235 54.5091C83.6141 54.5091 83.3664 53.6826 83.3664 52.9366C83.3664 52.1929 83.6141 51.4491 84.5235 51.4491ZM84.5235 55.0052C85.682 55.0052 86.4264 54.1786 86.4264 52.9366C86.4264 51.6961 85.5164 50.9523 84.5235 50.9523C83.5306 50.9523 82.5392 51.6961 82.5392 52.9366C82.5392 54.1786 83.3664 55.0052 84.5235 55.0052ZM89.8169 54.5091C89.4036 54.8396 89.0732 55.0052 88.5764 55.0052C87.6663 55.0052 87.1702 54.5091 87.1702 53.5162V51.0358H87.8326V53.3506C87.8326 54.0958 88.1631 54.5091 88.824 54.5091C89.4036 54.5091 89.8169 54.0958 89.8169 53.3506V51.0358H90.5607V54.9224H89.8169V54.5091ZM92.216 51.5319C92.6292 51.1186 93.126 50.9523 93.5393 50.9523C94.4494 50.9523 94.9455 51.4484 94.9455 52.4398V54.9217H94.2831V52.6054C94.2831 51.8617 93.9526 51.4484 93.2902 51.4484C92.712 51.4484 92.216 51.8617 92.216 52.6054V54.9217H91.5536V51.0351H92.216V51.5319ZM96.8463 51.0358H97.8392V51.4491H96.8463V53.6826C96.8463 54.1786 96.9291 54.5091 97.4259 54.5091C97.6736 54.5091 97.8392 54.5091 97.922 54.4263L98.0868 54.7568C97.8392 54.9224 97.5915 55.0059 97.3431 55.0059C96.5165 55.0059 96.1025 54.5926 96.1025 53.7639V51.4491H95.6064V51.0358H96.1025V50.043L96.8463 49.7938V51.0358ZM100.816 52.6062C100.899 53.8467 100.238 54.5091 99.7421 54.5091C99.493 54.5091 99.1625 54.26 99.1625 53.8467C99.1625 53.3506 99.493 53.0202 100.155 52.8538L100.816 52.6062ZM100.816 54.26C100.816 54.5091 100.816 54.7561 100.899 54.9224H101.726C101.561 54.6733 101.561 54.26 101.561 54.0123V52.2757C101.561 51.1186 100.651 50.9523 100.072 50.9523C99.493 50.9523 99.079 51.1179 98.7485 51.4484L98.9962 51.7789C99.2453 51.6133 99.5758 51.3656 99.9891 51.3656C100.402 51.3656 100.816 51.6961 100.816 52.1922L99.8228 52.4398C99.079 52.689 98.4994 53.185 98.4994 53.846C98.4994 54.5912 98.9141 55.0045 99.5751 55.0045C99.767 55.0005 99.9556 54.9539 100.127 54.8681C100.299 54.7823 100.45 54.6595 100.568 54.5084L100.816 54.26ZM102.636 51.0358H103.298V54.9224H102.636V51.0358ZM102.553 49.7125C102.553 49.5469 102.719 49.2992 102.966 49.2992C103.298 49.2992 103.462 49.5469 103.462 49.7125C103.462 49.9602 103.297 50.2086 102.966 50.2086C102.636 50.2086 102.553 49.9602 102.553 49.7125ZM105.035 51.5319C105.448 51.1186 105.945 50.9523 106.358 50.9523C107.268 50.9523 107.763 51.4484 107.763 52.4398V54.9217H107.102V52.6054C107.102 51.8617 106.771 51.4484 106.109 51.4484C105.531 51.4484 105.035 51.8617 105.035 52.6054V54.9217H104.372V51.0351H105.035V51.5319ZM111.899 49.9602H112.562C113.058 49.9602 113.472 50.2906 113.472 50.953C113.472 51.3663 113.306 52.1101 112.313 52.1101H111.9V49.9602H111.899ZM111.155 54.9224H111.899V52.689H112.725L113.966 55.0052L114.711 54.8396L113.388 52.4406C113.884 52.1101 114.298 51.6968 114.298 50.8695C114.298 49.8766 113.635 49.4634 112.725 49.4634H111.154V54.9224H111.155ZM115.786 52.5234C115.786 52.0273 116.118 51.4491 116.862 51.4491C117.441 51.4491 117.772 51.9452 117.772 52.5234H115.786ZM118.35 53.0202C118.433 52.0273 118.019 50.953 116.862 50.953C115.952 50.953 114.959 51.5326 114.959 52.9374C114.959 54.2607 115.786 55.0059 117.028 55.0059C117.441 55.0059 117.937 54.8403 118.35 54.5926L118.102 54.1794C117.854 54.427 117.441 54.5098 117.028 54.5098C116.283 54.5098 115.703 53.8474 115.703 53.0209H118.35V53.0202ZM121.245 51.614C120.997 51.4491 120.749 51.3663 120.501 51.3663C120.252 51.3663 120.005 51.5319 120.005 51.8624C120.005 52.1929 120.336 52.3585 120.749 52.689C121.245 53.0194 121.575 53.3499 121.575 53.9295C121.575 54.5919 120.997 55.0052 120.252 55.0052C119.756 55.0052 119.259 54.8396 119.011 54.5091L119.342 54.1786C119.591 54.3435 119.922 54.5091 120.252 54.5091C120.583 54.5091 120.914 54.3435 120.914 54.013C120.914 53.517 120.501 53.3506 120.088 53.0202C119.673 52.7725 119.26 52.4406 119.26 51.9459C119.26 51.2835 119.839 50.953 120.583 50.953C120.998 50.953 121.328 51.1186 121.576 51.2835L121.245 51.614ZM124.139 51.4491C125.049 51.4491 125.298 52.1929 125.298 52.9366C125.298 53.6818 125.049 54.5091 124.139 54.5091C123.23 54.5091 122.982 53.6826 122.982 52.9366C122.982 52.1929 123.229 51.4491 124.139 51.4491ZM124.139 55.0052C125.298 55.0052 126.125 54.1786 126.125 52.9366C126.125 51.6961 125.132 50.9523 124.139 50.9523C123.148 50.9523 122.238 51.6961 122.238 52.9366C122.238 54.1786 122.982 55.0052 124.139 55.0052ZM127.531 51.5319L127.779 51.2C127.945 51.0351 128.192 50.9523 128.359 50.9523C128.606 50.9523 128.855 51.0351 129.019 51.2828L128.689 51.7789C128.523 51.6961 128.359 51.6133 128.193 51.6133C127.862 51.6133 127.532 51.9452 127.532 52.8538V54.9224H126.787V51.0358H127.532V51.5319H127.531ZM130.591 51.0358H131.665V51.4491H130.591V53.6826C130.591 54.1786 130.673 54.5091 131.169 54.5091C131.419 54.5091 131.583 54.5091 131.665 54.4263L131.831 54.7568C131.582 54.9224 131.335 55.0059 131.086 55.0059C130.259 55.0059 129.929 54.5926 129.929 53.7639V51.4491H129.351V51.0358H129.929V50.043L130.591 49.7938V51.0358ZM85.9296 38.4639H78.6512V35.9828H86.2601V37.3062L88.6592 36.7266V36.4789V33.9978H87.914V34.411C87.4186 34.0806 86.7569 33.915 85.764 33.915H79.148C76.998 33.915 76.2536 34.4938 76.2536 36.7266V37.9671C76.2536 40.2006 76.9973 40.7794 79.148 40.7794H86.4264V43.4262H78.2379V42.02L75.8403 42.5161V42.8466C75.8403 44.9965 76.5012 45.5761 78.7347 45.5761H85.9304C88.0803 45.5761 88.8248 44.9965 88.8248 42.8466V41.2755C88.824 39.0435 88.0803 38.4639 85.9296 38.4639ZM35.976 28.5394C33.6605 24.2382 37.2994 20.7649 42.51 18.2017L38.954 9.68264C38.8712 9.35215 38.1267 7.53271 38.1267 7.53271C38.1267 7.53271 37.3001 9.35215 37.2173 9.68264L29.7732 27.4645L11.082 29.3667C10.6688 29.4495 8.93212 29.6972 8.93212 29.6972C8.93212 29.6972 10.4204 30.9378 10.586 31.1034L19.6011 38.5467C24.0672 37.3897 31.5106 35.4867 34.3229 34.2462C36.7205 33.1712 37.7127 31.765 35.976 28.5394ZM66.908 29.6972C66.908 29.6972 65.2534 29.4495 64.8401 29.3667L46.3973 27.4645L43.1962 19.921L42.6728 20.2062C39.7186 22.04 38.1296 25.1655 42.6749 30.4417C47.3888 36.0656 43.7506 40.6138 39.3672 44.3362C37.465 45.9073 26.0516 54.7568 21.1721 58.4792L20.262 62.6134C20.18 62.9454 19.7667 64.8469 19.7667 64.8469C19.7667 64.8469 21.5033 63.6898 21.6689 63.6063L38.1267 52.9374L54.254 63.8554C54.3368 64.0203 56.1562 65.0125 56.1562 65.0125C56.1562 65.0125 55.7429 63.1095 55.6601 62.8626L51.3588 42.6831L65.2534 31.1034C65.419 30.9378 66.908 29.6972 66.908 29.6972ZM43.063 19.5826L42.6749 18.5322C41.8484 18.9462 41.1867 19.3594 40.525 19.7727C40.111 20.0211 39.6977 20.3516 39.2016 20.6821C36.6377 22.7499 35.6463 25.3138 37.5478 28.6215C40.3594 33.4189 38.8712 35.486 35.6456 37.5538C35.3144 37.803 34.9011 38.0499 34.4878 38.299C33.9089 38.6295 33.33 38.96 32.6684 39.2905C31.2622 40.117 28.2022 41.5239 24.6461 43.0957C19.1871 45.4933 12.6538 48.14 10.0071 49.2157L6.53308 59.6362C8.60092 58.3957 11.9086 56.4934 15.6303 54.26L28.946 46.2385C30.8482 44.9965 32.6676 43.8394 34.3215 42.8466C34.9832 42.3505 35.6448 41.9365 36.2237 41.5232C37.8776 40.449 39.0353 39.5389 39.6142 39.0428C42.0125 36.7266 43.0882 33.2526 41.1032 30.441C36.7882 24.3354 39.4457 21.3546 42.8427 19.6856L43.063 19.5826Z" fill="#CCCCCC"/>
</svg>
