<svg width="121" height="64" viewBox="0 0 121 64" fill="none" xmlns="http://www.w3.org/2000/svg">
<path fill-rule="evenodd" clip-rule="evenodd" d="M101.401 21.4481C101.61 22.0048 101.679 22.4926 101.748 22.8405C101.818 23.1885 101.818 23.5365 101.888 23.8148C101.98 23.4717 102.12 23.1436 102.305 22.8405C102.445 22.4926 102.723 22.0048 103.071 21.4481L111.912 8.70959H118.734L104.672 27.3647L109.615 38.0844H102.863L101.192 33.0029C101.053 32.6543 100.983 32.2374 100.845 31.8198C100.845 31.4712 100.774 31.0537 100.774 30.6361C100.566 31.0537 100.427 31.4712 100.218 31.8198C100.009 32.2374 99.8002 32.6549 99.5914 33.0029L96.2503 38.0844H89.5682L98.0597 27.3647L93.9532 18.0368H100.428L101.401 21.4481Z" fill="#CCCCCC"/>
<path fill-rule="evenodd" clip-rule="evenodd" d="M91.5852 18.0374L88.1739 38.085H82.6749L83.2316 34.8129C82.2573 36.2047 81.1432 37.2499 80.0993 37.8762C78.9852 38.5025 77.8022 38.8505 76.4097 38.8505C74.1815 38.8505 72.5119 37.8762 71.537 35.927C70.4919 33.9778 70.2831 31.332 70.8405 28.0606C71.3972 24.7885 72.5113 22.2136 74.2517 20.2644C75.9922 18.3848 78.0805 17.4099 80.5163 17.4099C81.7702 17.4099 82.8134 17.6882 83.6485 18.3848C84.4141 19.0111 85.0404 19.986 85.5282 21.3083L86.0849 18.0368H91.5852V18.0374V18.0374ZM84.6241 28.0612C84.9031 26.4606 84.7639 25.2073 84.2065 24.302C83.6498 23.3973 82.7451 22.9797 81.5608 22.9797C80.3081 22.9797 79.2649 23.3973 78.4285 24.302C77.5934 25.2073 77.0367 26.4606 76.7583 28.0612C76.4793 29.5928 76.6185 30.8455 77.1758 31.7502C77.7326 32.5866 78.6373 33.0731 79.8204 33.0731C81.0047 33.0731 82.0486 32.5866 82.9539 31.7502C83.7896 30.8455 84.3463 29.5922 84.6241 28.0612V28.0612ZM54.623 38.085H60.5396L62.0016 29.801C62.2794 27.8518 62.9759 26.3904 63.9508 25.2763C64.9251 24.2318 66.1088 23.7446 67.5696 23.7446C67.9182 23.7446 68.1972 23.7446 68.5452 23.8142C68.8925 23.8838 69.2405 24.023 69.5891 24.1622L71.2593 17.6882C70.9815 17.6882 70.7727 17.6186 70.4938 17.6186H69.7985C68.4066 17.6186 67.0837 18.0362 65.9007 18.8719C64.7866 19.7766 63.7427 21.0299 62.907 22.7697L63.6725 18.0362H58.0343L54.623 38.085V38.085ZM41.0488 38.085H47.7315L51.5603 14.6958H102.097L105.369 8.98795H19.4006L18.2169 14.6958H44.808L41.0488 38.085V38.085ZM14.5975 38.085L18.0082 18.0374H23.5078L22.8113 22.0744C23.8551 20.4738 24.9692 19.2907 26.1529 18.5246C27.336 17.7591 28.6589 17.4105 30.1203 17.4105C31.2338 17.4105 32.1397 17.6193 32.9046 18.0374C33.7404 18.455 34.2971 19.0117 34.7146 19.8474C35.0626 20.4738 35.2018 21.3095 35.2714 22.2838C35.2714 23.2581 35.1322 24.7201 34.7842 26.5998L32.835 38.0856H26.8489L28.6589 27.3659C28.9372 25.7646 28.9372 24.5816 28.5893 23.885C28.3109 23.1195 27.615 22.7716 26.6401 22.7716C25.3868 22.7716 24.4125 23.3283 23.647 24.3728C22.8815 25.4863 22.3247 27.2267 21.9072 29.6631L20.4458 38.0862H14.5975V38.085V38.085ZM7.84521 14.6958L9.09849 8.77917H15.0847L13.901 14.6958H7.84521ZM4.01639 38.085L7.42765 18.0374H13.4138L10.0032 38.085H4.01639ZM2.97313 53.7476L4.08661 53.6773C4.08661 53.9563 4.1562 54.0949 4.36497 54.2341C4.50416 54.3739 4.78253 54.4429 5.13049 54.4429C5.47845 54.4429 5.75682 54.3739 5.96622 54.3031C6.17499 54.1645 6.24459 54.0253 6.31418 53.8855C6.31418 53.8165 6.31418 53.7469 6.24459 53.6767C6.17562 53.6078 6.03581 53.5369 5.89662 53.468C5.75682 53.468 5.47845 53.399 5.0609 53.3281C4.50416 53.1896 4.08661 53.0504 3.87721 52.9106C3.59884 52.7018 3.52925 52.4241 3.59884 52.1451C3.66843 51.9363 3.80761 51.7275 4.01639 51.5883C4.1562 51.3796 4.43395 51.241 4.78191 51.1708C5.06028 51.0322 5.47783 51.0322 5.896 51.0322C6.52233 51.0322 7.00948 51.1012 7.35806 51.31C7.63643 51.5877 7.70602 51.8667 7.63643 52.2153H6.52295C6.52295 52.0065 6.52295 51.8667 6.38377 51.7977C6.24459 51.7275 5.96622 51.6579 5.68785 51.6579C5.33989 51.6579 5.13111 51.7269 4.92171 51.7977C4.79747 51.8521 4.69829 51.9512 4.64396 52.0755C4.64396 52.1445 4.64396 52.2153 4.78315 52.2843C4.92233 52.4241 5.2007 52.493 5.68847 52.562C6.24521 52.6322 6.59317 52.772 6.80194 52.841C7.08031 52.9808 7.2195 53.0498 7.35868 53.2585C7.42828 53.3984 7.42828 53.6071 7.42828 53.8849C7.35868 54.0937 7.2195 54.3024 7.01072 54.5112C6.73235 54.7212 6.45398 54.8598 6.17562 54.93C5.82703 55.0686 5.40948 55.1388 4.92171 55.1388C4.22641 55.1388 3.73864 54.999 3.39068 54.7902C3.11169 54.5118 2.97313 54.1651 2.97313 53.7476V53.7476ZM9.0289 51.1018H10.1424L9.58501 53.2598C9.51542 53.5375 9.44583 53.8165 9.44583 53.8861C9.44583 54.0259 9.51542 54.1651 9.7242 54.3037C9.86338 54.3739 10.0728 54.4435 10.4201 54.4435C10.6985 54.4435 10.9769 54.3745 11.116 54.3037C11.3248 54.1651 11.4646 54.0949 11.5342 53.9563C11.6038 53.8165 11.6734 53.6078 11.743 53.2598L12.2301 51.1018H13.3442L12.8571 53.1902C12.7173 53.6078 12.6483 53.9557 12.5085 54.1645C12.4389 54.3733 12.2301 54.5118 12.091 54.651C11.8828 54.7908 11.6038 54.93 11.3254 54.9996C11.0471 55.0692 10.6991 55.1394 10.2816 55.1394C9.88257 55.145 9.48457 55.098 9.09787 54.9996C8.88909 54.8598 8.68031 54.7908 8.54113 54.651C8.40132 54.5112 8.40132 54.3733 8.33235 54.1645C8.33235 53.9557 8.40194 53.6078 8.47216 53.1902L9.0289 51.1018V51.1018ZM13.553 53.7476L14.6671 53.6773C14.6671 53.9563 14.7367 54.0949 14.9455 54.2341C15.0847 54.3739 15.363 54.4429 15.711 54.4429C16.059 54.4429 16.3373 54.3739 16.5461 54.3031C16.7549 54.1645 16.8245 54.0253 16.8941 53.8855C16.8941 53.8165 16.8941 53.7469 16.8245 53.6767C16.7549 53.6078 16.6853 53.5369 16.4759 53.468C16.3367 53.468 16.0583 53.399 15.6408 53.3281C15.084 53.1896 14.6665 53.0504 14.5273 52.9106C14.1787 52.7018 14.1091 52.4241 14.1787 52.1451C14.2483 51.9363 14.3875 51.7275 14.5273 51.5883C14.7361 51.3796 15.0138 51.241 15.3624 51.1708C15.6408 51.0322 15.9887 51.0322 16.4759 51.0322C17.1028 51.0322 17.59 51.1012 17.9379 51.31C18.2163 51.5877 18.2859 51.8667 18.2163 52.2153H17.1028C17.1028 52.0065 17.0332 51.8667 16.9637 51.7977C16.8245 51.7275 16.5461 51.6579 16.2677 51.6579C15.9198 51.6579 15.711 51.7269 15.5016 51.7977C15.3772 51.852 15.2778 51.9512 15.2232 52.0755C15.2232 52.1445 15.2232 52.2153 15.363 52.2843C15.5022 52.4241 15.7812 52.493 16.2684 52.562C16.8251 52.6322 17.1731 52.772 17.452 52.841C17.6608 52.9808 17.8 53.0498 17.9392 53.2585C18.0088 53.3984 18.0784 53.6071 18.0088 53.8849C17.9392 54.0937 17.8 54.3024 17.5912 54.5112C17.3129 54.7212 17.0345 54.8598 16.7555 54.93C16.4075 55.0686 15.99 55.1388 15.5022 55.1388C14.8063 55.1388 14.3191 54.999 13.9712 54.7902C13.6928 54.5118 13.553 54.1651 13.553 53.7476V53.7476ZM18.6345 55.0692L19.6088 51.1018H21.3492C22.0458 51.1018 22.4627 51.1018 22.6715 51.1708C22.9498 51.1708 23.1592 51.3106 23.368 51.5194C23.5072 51.7281 23.5768 52.0071 23.5072 52.2849C23.4499 52.5213 23.3297 52.7377 23.1592 52.9112C22.9504 53.051 22.8106 53.1902 22.6025 53.3288C22.3937 53.399 22.1849 53.4686 21.9762 53.4686C21.6978 53.5375 21.2802 53.5375 20.7931 53.5375H20.0972L19.7486 55.0692H18.6345V55.0692ZM20.5147 51.7281L20.2364 52.9112H20.8621C21.2802 52.9112 21.6282 52.8422 21.7674 52.8422C21.9066 52.7733 22.0458 52.7024 22.116 52.6335C22.2552 52.4937 22.3241 52.4247 22.3241 52.2849C22.3937 52.1451 22.3241 52.0761 22.2545 51.9363C22.1849 51.8673 22.0458 51.7977 21.837 51.7977C21.7674 51.7275 21.4884 51.7275 21.0708 51.7275H20.5147V51.7281V51.7281ZM23.716 55.0692L24.6909 51.1018H28.7278L28.5887 51.7281H25.5956L25.3868 52.6335H28.1711L27.9623 53.2598H25.2476L24.9692 54.3739H28.0319L27.8231 55.0692H23.716V55.0692ZM28.7974 55.0692L29.7724 51.1018H30.8169L32.4175 53.7476L33.1134 51.1018H34.0877L33.1134 55.0692H31.9999L30.4689 52.4937L29.8419 55.0692H28.7974ZM34.2971 53.7476L35.4106 53.6773C35.4106 53.9563 35.4802 54.0949 35.6889 54.2341C35.8281 54.3739 36.1065 54.4429 36.4545 54.4429C36.7387 54.4429 37.0209 54.3957 37.2896 54.3031C37.4983 54.1645 37.5679 54.0253 37.6375 53.8855C37.6375 53.8165 37.6375 53.7469 37.5679 53.6767C37.4983 53.6078 37.4287 53.5369 37.22 53.468C37.0802 53.468 36.8024 53.399 36.3842 53.3281C35.8275 53.1896 35.4099 53.0504 35.2708 52.9106C34.9222 52.7018 34.8532 52.4241 34.9222 52.1451C34.9963 51.9363 35.1153 51.7462 35.2708 51.5883C35.4795 51.3796 35.7579 51.241 36.1059 51.1708C36.3842 51.0322 36.8024 51.0322 37.22 51.0322C37.8463 51.0322 38.3334 51.1012 38.682 51.31C38.9604 51.5877 39.03 51.8667 38.9604 52.2153H37.8463C37.9159 52.0065 37.7767 51.8667 37.7071 51.7977C37.5679 51.7275 37.3585 51.6579 37.0112 51.6579C36.6626 51.6579 36.4545 51.7269 36.2457 51.7977C36.1211 51.8518 36.0217 51.9511 35.9673 52.0755C35.9673 52.1445 36.0369 52.2153 36.1065 52.2843C36.2463 52.4241 36.5247 52.493 37.0808 52.562C37.5685 52.6322 37.9165 52.772 38.1949 52.841C38.4037 52.9808 38.5428 53.0498 38.682 53.2585C38.7516 53.3984 38.8212 53.6071 38.7516 53.8849C38.682 54.0937 38.5428 54.3024 38.3341 54.5112C38.0563 54.7212 37.7773 54.8598 37.499 54.93C37.151 55.0686 36.7334 55.1388 36.2463 55.1388C35.5504 55.1388 35.0626 54.999 34.7146 54.7902C34.4357 54.5118 34.2971 54.1651 34.2971 53.7476V53.7476ZM39.309 55.0692L40.2833 51.1018H41.3967L40.4225 55.0692H39.309ZM41.7447 53.051C41.8143 52.7024 42.0231 52.3545 42.2325 52.0767C42.4412 51.868 42.65 51.6592 42.8588 51.52C43.1372 51.3802 43.4155 51.2422 43.6939 51.1714C44.0419 51.1024 44.4594 51.0328 44.8776 51.0328C45.7127 51.0328 46.2694 51.1714 46.687 51.589C47.1045 51.9375 47.1748 52.4253 47.0356 53.0516C46.8964 53.678 46.5484 54.1657 45.9911 54.5833C45.3647 54.9319 44.7378 55.14 43.9033 55.14C43.0676 55.14 42.5108 54.9313 42.0933 54.5833C41.7447 54.2341 41.6055 53.7476 41.7447 53.051ZM42.8588 53.051C42.7892 53.5375 42.8588 53.8165 43.0676 54.0949C43.2764 54.3037 43.6243 54.4435 44.0419 54.4435C44.529 54.4435 44.8776 54.3037 45.2249 54.0949C45.5735 53.8172 45.7817 53.5382 45.9215 53.051C45.9911 52.6335 45.9911 52.2855 45.7823 52.0071C45.5039 51.7984 45.2256 51.7281 44.7378 51.7281C44.25 51.7281 43.9027 51.7984 43.5547 52.0071C43.2068 52.2849 42.998 52.6335 42.8588 53.051V53.051ZM47.4531 55.0692L48.4274 51.1018H49.4719L51.0732 53.7476L51.6995 51.1018H52.7434L51.7685 55.0692H50.655L49.0538 52.4937L48.4274 55.0692H47.4531ZM56.2236 55.0692L57.0593 51.7281H55.4581L55.5973 51.1018H59.9132L59.7741 51.7281H58.1728L57.3377 55.0692H56.2236ZM59.7038 55.0692L60.6788 51.1018H64.7164L64.5076 51.7281H61.5841L61.3741 52.6335H64.0894L63.9508 53.2598H61.2361L60.9571 54.3739H64.0198L63.811 55.0692H59.7038V55.0692ZM68.6148 53.6078L69.5891 53.8165C69.3803 54.2341 68.9627 54.582 68.5452 54.7908C68.1264 54.9996 67.6398 55.1394 67.0123 55.1394C66.317 55.1394 65.7596 54.9306 65.4117 54.5827C64.9941 54.2341 64.9251 53.7476 65.0631 53.12C65.2029 52.4247 65.5508 51.9369 66.1082 51.5883C66.6649 51.1708 67.3609 51.0322 68.1264 51.0322C68.7539 51.0322 69.3094 51.1708 69.658 51.4498C69.8668 51.5883 69.937 51.8673 70.0066 52.1451L68.8925 52.3539C68.8925 52.1451 68.7539 52.0065 68.6148 51.8673C68.406 51.7275 68.1972 51.7275 67.9182 51.7275C67.5007 51.7275 67.1527 51.7977 66.8054 52.0065C66.5264 52.2153 66.3176 52.5626 66.1778 53.0504C66.1088 53.5369 66.1088 53.8855 66.3176 54.0943C66.5264 54.3031 66.8054 54.4429 67.2229 54.4429C67.5007 54.4429 67.7797 54.3739 67.9884 54.2341C68.2662 54.0949 68.475 53.8861 68.6148 53.6078V53.6078ZM70.2844 55.0692L71.2593 51.1018H72.3734L71.9558 52.6335H74.1132L74.5307 51.1018H75.5758L74.6009 55.0692H73.5564L73.974 53.3288H71.816L71.3984 55.0692H70.2844V55.0692ZM75.7846 55.0692L76.7589 51.1018H77.8028L79.4034 53.7476L80.0298 51.1018H81.0743L80.1 55.0692H78.9859L77.4542 52.4937L76.7589 55.0692H75.7846V55.0692ZM81.4918 53.051C81.6316 52.7024 81.7708 52.3545 82.0486 52.0767C82.206 51.8404 82.4217 51.6487 82.6749 51.52C82.9094 51.363 83.168 51.2452 83.4404 51.1714C83.8579 51.1024 84.2059 51.0328 84.6943 51.0328C85.4598 51.0328 86.0861 51.1714 86.4347 51.589C86.8523 51.9375 86.9908 52.4253 86.8523 53.0516C86.6435 53.678 86.2955 54.1657 85.7382 54.5833C85.1814 54.9319 84.4843 55.14 83.6498 55.14C82.8843 55.14 82.2579 54.9313 81.8404 54.5833C81.4918 54.2341 81.3526 53.7476 81.4918 53.051V53.051ZM82.6755 53.051C82.5357 53.5375 82.6065 53.8165 82.8153 54.0949C83.0931 54.3037 83.372 54.4435 83.8592 54.4435C84.2767 54.4435 84.6955 54.3037 84.9733 54.0949C85.3219 53.8172 85.5996 53.5382 85.6698 53.051C85.8084 52.6335 85.7388 52.2855 85.53 52.0071C85.3212 51.7984 84.9733 51.7281 84.4849 51.7281C84.0673 51.7281 83.6498 51.7984 83.3018 52.0071C83.0235 52.2849 82.7457 52.6335 82.6755 53.051V53.051ZM87.1996 55.0692L88.1739 51.1018H89.288L88.4529 54.3739H91.2372L91.0986 55.0692H87.1996ZM92.0736 53.051C92.2121 52.7024 92.3513 52.3545 92.6297 52.0767C92.7873 51.8401 93.0035 51.6483 93.2573 51.52C93.535 51.3802 93.7438 51.2422 94.0228 51.1714C94.4346 51.0834 94.8543 51.0369 95.2754 51.0328C96.0409 51.0328 96.6673 51.1714 97.0848 51.589C97.4334 51.9375 97.5726 52.4253 97.4334 53.0516C97.2246 53.678 96.8767 54.1657 96.3193 54.5833C95.7632 54.9319 95.0666 55.14 94.2322 55.14C93.4666 55.14 92.8391 54.9313 92.4917 54.5833C92.0736 54.2341 91.9338 53.7476 92.0736 53.051ZM93.2566 53.051C93.1168 53.5375 93.1864 53.8165 93.3952 54.0949C93.6742 54.3037 93.9519 54.4435 94.4403 54.4435C94.8579 54.4435 95.2754 54.3037 95.5532 54.0949C95.9018 53.8172 96.1807 53.5382 96.2497 53.051C96.3895 52.6335 96.3187 52.2855 96.1099 52.0071C95.9011 51.7984 95.5532 51.7281 95.1356 51.7281C94.6491 51.7281 94.2315 51.7984 93.883 52.0071C93.604 52.2849 93.3256 52.6335 93.2566 53.051ZM100.565 53.6078L100.774 52.9112H103.141L102.723 54.5118C102.445 54.6516 102.097 54.7908 101.61 54.9306C101.182 55.0673 100.736 55.1377 100.287 55.1394C99.7306 55.1394 99.313 54.9996 98.8955 54.8604C98.5469 54.6516 98.2679 54.4429 98.1299 54.0949C97.9901 53.7476 97.9901 53.3996 98.0597 53.051C98.1995 52.6335 98.4083 52.2855 98.6873 51.9369C99.0346 51.6592 99.4528 51.3802 99.8704 51.2416C100.218 51.1018 100.705 51.0328 101.192 51.0328C101.889 51.0328 102.376 51.1018 102.724 51.3106C103.072 51.5194 103.211 51.7984 103.28 52.1457L102.097 52.3545C102.097 52.1457 101.958 52.0071 101.82 51.868C101.611 51.7281 101.332 51.7281 101.054 51.7281C100.566 51.7281 100.149 51.7984 99.8002 52.0071C99.5224 52.2159 99.3136 52.5632 99.2434 52.9814C99.1049 53.4679 99.1745 53.8165 99.3832 54.0943C99.592 54.3031 99.871 54.4429 100.358 54.4429C100.566 54.4429 100.845 54.3739 101.054 54.3031C101.332 54.2341 101.541 54.1645 101.749 54.0943L101.889 53.6078H100.565V53.6078ZM105.09 55.0692L105.437 53.399L104.045 51.1018H105.368L106.203 52.6335L107.874 51.1018H109.127L106.551 53.399L106.134 55.0692H105.09V55.0692ZM2.48474 47.6216H109.683L110.798 42.6787H3.59884L2.48474 47.6216V47.6216Z" fill="#CCCCCC"/>
</svg>
